<svg width="117" height="120" viewBox="0 0 117 120" fill="none" xmlns="http://www.w3.org/2000/svg">
    <path
        d="M62.1741 59.4929C65.0508 59.4929 67.3827 57.1609 67.3827 54.2843C67.3827 51.4077 65.0508 49.0757 62.1741 49.0757C59.2975 49.0757 56.9656 51.4077 56.9656 54.2843C56.9656 57.1609 59.2975 59.4929 62.1741 59.4929Z"
        fill="#399CDE"/>
    <path
        d="M62.1747 45.5674C63.2401 45.5674 64.261 45.7603 65.2056 46.1118C65.8819 43.0556 66.3128 39.2356 66.3128 35.626C66.3128 30.8268 65.6964 27.595 64.8184 25.7029C64.3557 24.706 63.3462 24.0141 62.1748 24.0141C61.0033 24.0141 59.9938 24.706 59.5312 25.7029C58.6532 27.595 58.0367 30.8267 58.0367 35.626C58.0367 39.2356 58.4677 43.0557 59.144 46.1118C60.0883 45.7602 61.1093 45.5674 62.1747 45.5674Z"
        fill="#14223B"/>
    <path
        d="M53.5825 55.7455C50.5974 56.6878 47.0733 58.2247 43.9469 60.0298C39.7907 62.4294 37.3001 64.579 36.1004 66.2855C35.4683 67.1847 35.3739 68.4048 35.9596 69.4193C36.5454 70.4338 37.6492 70.9621 38.744 70.8643C40.8217 70.6787 43.9286 69.5966 48.0848 67.1971C51.2122 65.3916 54.3062 63.1072 56.615 60.9927C55.0437 59.6882 53.9381 57.8429 53.5825 55.7455Z"
        fill="#14223B"/>
    <path
        d="M88.2484 66.2855C87.0489 64.579 84.5583 62.4293 80.402 60.0298C77.2756 58.2247 73.7514 56.6878 70.7664 55.7455C70.4108 57.8429 69.3052 59.6883 67.7338 60.9927C70.0425 63.1072 73.1366 65.3916 76.264 67.1971C80.4201 69.5967 83.5272 70.6787 85.6047 70.8643C86.6996 70.9621 87.8033 70.4338 88.3891 69.4193C88.9749 68.4048 88.8805 67.1847 88.2484 66.2855Z"
        fill="#14223B"/>
    <path
        d="M22.6882 41.3893C22.812 46.8119 24.2164 52.0267 26.7456 56.6908C27.0559 54.9837 27.7345 53.3353 28.785 51.8734C24.5401 41.3733 26.4867 28.9786 34.7578 20.4507C35.5043 19.681 35.4761 18.4419 34.6947 17.6831C33.9133 16.9243 32.6747 16.9331 31.9282 17.7028C25.7662 24.0561 22.4848 32.4681 22.6882 41.3893Z"
        fill="#399CDE"/>
    <path
        d="M35.3761 38.3987C35.0999 40.8438 35.2685 43.3346 35.8508 45.7269C36.9996 44.935 38.2007 44.1537 39.375 43.4406C38.5907 38.3287 40.15 33.0028 43.8462 29.191C44.5933 28.4205 44.565 27.1802 43.7831 26.4206C43.0011 25.6611 41.7615 25.6699 41.0144 26.4403C37.8395 29.7145 35.8898 33.8496 35.3761 38.3987Z"
        fill="black"/>
    <path
        d="M9.775 115.375C8.475 115.375 7.30833 115.175 6.275 114.775C5.24167 114.375 4.36667 113.792 3.65 113.025C2.93333 112.242 2.38333 111.292 2 110.175C1.61667 109.058 1.425 107.775 1.425 106.325C1.425 104.875 1.64167 103.592 2.075 102.475C2.525 101.358 3.13333 100.417 3.9 99.65C4.66667 98.8667 5.56667 98.275 6.6 97.875C7.63333 97.475 8.74167 97.275 9.925 97.275C10.6417 97.275 11.2917 97.3333 11.875 97.45C12.4583 97.55 12.9667 97.6667 13.4 97.8C13.8333 97.9333 14.1917 98.075 14.475 98.225C14.7583 98.375 14.9583 98.4833 15.075 98.55L14.15 101.125C13.75 100.875 13.175 100.642 12.425 100.425C11.6917 100.192 10.8917 100.075 10.025 100.075C9.275 100.075 8.575 100.208 7.925 100.475C7.275 100.725 6.70833 101.108 6.225 101.625C5.75833 102.142 5.39167 102.792 5.125 103.575C4.85833 104.358 4.725 105.267 4.725 106.3C4.725 107.217 4.825 108.058 5.025 108.825C5.24167 109.592 5.56667 110.258 6 110.825C6.43333 111.375 6.98333 111.808 7.65 112.125C8.31667 112.425 9.11667 112.575 10.05 112.575C11.1667 112.575 12.075 112.467 12.775 112.25C13.475 112.017 14.0167 111.8 14.4 111.6L15.25 114.175C15.05 114.308 14.775 114.442 14.425 114.575C14.0917 114.708 13.6917 114.842 13.225 114.975C12.7583 115.092 12.2333 115.183 11.65 115.25C11.0667 115.333 10.4417 115.375 9.775 115.375ZM22.4174 115.25C21.5174 115.233 20.7674 115.133 20.1674 114.95C19.584 114.767 19.1174 114.508 18.7674 114.175C18.4174 113.825 18.1674 113.4 18.0174 112.9C17.884 112.383 17.8174 111.8 17.8174 111.15V96.1L20.8424 95.6V110.575C20.8424 110.942 20.8674 111.25 20.9174 111.5C20.984 111.75 21.0924 111.967 21.2424 112.15C21.3924 112.317 21.5924 112.45 21.8424 112.55C22.109 112.633 22.4424 112.7 22.8424 112.75L22.4174 115.25ZM24.5643 108.525C24.5643 107.375 24.7309 106.367 25.0643 105.5C25.4143 104.633 25.8726 103.917 26.4393 103.35C27.0059 102.767 27.6559 102.333 28.3893 102.05C29.1226 101.75 29.8726 101.6 30.6393 101.6C32.4393 101.6 33.8393 102.158 34.8393 103.275C35.8559 104.392 36.3643 106.058 36.3643 108.275C36.3643 108.442 36.3559 108.633 36.3393 108.85C36.3393 109.05 36.3309 109.233 36.3143 109.4H27.6893C27.7726 110.45 28.1393 111.267 28.7893 111.85C29.4559 112.417 30.4143 112.7 31.6643 112.7C32.3976 112.7 33.0643 112.633 33.6643 112.5C34.2809 112.367 34.7643 112.225 35.1143 112.075L35.5143 114.55C35.3476 114.633 35.1143 114.725 34.8143 114.825C34.5309 114.908 34.1976 114.983 33.8143 115.05C33.4476 115.133 33.0476 115.2 32.6143 115.25C32.1809 115.3 31.7393 115.325 31.2893 115.325C30.1393 115.325 29.1393 115.158 28.2893 114.825C27.4393 114.475 26.7393 114 26.1893 113.4C25.6393 112.783 25.2309 112.067 24.9643 111.25C24.6976 110.417 24.5643 109.508 24.5643 108.525ZM33.3393 107.175C33.3393 106.758 33.2809 106.367 33.1643 106C33.0476 105.617 32.8726 105.292 32.6393 105.025C32.4226 104.742 32.1476 104.525 31.8143 104.375C31.4976 104.208 31.1143 104.125 30.6643 104.125C30.1976 104.125 29.7893 104.217 29.4393 104.4C29.0893 104.567 28.7893 104.792 28.5393 105.075C28.3059 105.358 28.1226 105.683 27.9893 106.05C27.8559 106.417 27.7643 106.792 27.7143 107.175H33.3393ZM44.1715 112.875C45.1048 112.875 45.8132 112.825 46.2965 112.725V109.375C46.1298 109.325 45.8882 109.275 45.5715 109.225C45.2548 109.175 44.9048 109.15 44.5215 109.15C44.1882 109.15 43.8465 109.175 43.4965 109.225C43.1632 109.275 42.8548 109.367 42.5715 109.5C42.3048 109.633 42.0882 109.825 41.9215 110.075C41.7548 110.308 41.6715 110.608 41.6715 110.975C41.6715 111.692 41.8965 112.192 42.3465 112.475C42.7965 112.742 43.4048 112.875 44.1715 112.875ZM43.9215 101.6C44.9215 101.6 45.7632 101.725 46.4465 101.975C47.1298 102.225 47.6715 102.575 48.0715 103.025C48.4882 103.475 48.7798 104.025 48.9465 104.675C49.1298 105.308 49.2215 106.008 49.2215 106.775V114.7C48.7548 114.8 48.0465 114.917 47.0965 115.05C46.1632 115.2 45.1048 115.275 43.9215 115.275C43.1382 115.275 42.4215 115.2 41.7715 115.05C41.1215 114.9 40.5632 114.658 40.0965 114.325C39.6465 113.992 39.2882 113.558 39.0215 113.025C38.7715 112.492 38.6465 111.833 38.6465 111.05C38.6465 110.3 38.7882 109.667 39.0715 109.15C39.3715 108.633 39.7715 108.217 40.2715 107.9C40.7715 107.567 41.3465 107.333 41.9965 107.2C42.6632 107.05 43.3548 106.975 44.0715 106.975C44.4048 106.975 44.7548 107 45.1215 107.05C45.4882 107.083 45.8798 107.15 46.2965 107.25V106.75C46.2965 106.4 46.2548 106.067 46.1715 105.75C46.0882 105.433 45.9382 105.158 45.7215 104.925C45.5215 104.675 45.2465 104.483 44.8965 104.35C44.5632 104.217 44.1382 104.15 43.6215 104.15C42.9215 104.15 42.2798 104.2 41.6965 104.3C41.1132 104.4 40.6382 104.517 40.2715 104.65L39.8965 102.2C40.2798 102.067 40.8382 101.933 41.5715 101.8C42.3048 101.667 43.0882 101.6 43.9215 101.6ZM60.376 104.65C60.126 104.567 59.776 104.483 59.326 104.4C58.8926 104.3 58.3843 104.25 57.801 104.25C57.4676 104.25 57.1093 104.283 56.726 104.35C56.3593 104.417 56.101 104.475 55.951 104.525V115H52.926V102.55C53.5093 102.333 54.2343 102.133 55.101 101.95C55.9843 101.75 56.9593 101.65 58.026 101.65C58.226 101.65 58.4593 101.667 58.726 101.7C58.9926 101.717 59.2593 101.75 59.526 101.8C59.7926 101.833 60.051 101.883 60.301 101.95C60.551 102 60.751 102.05 60.901 102.1L60.376 104.65ZM68.059 97.5C70.5757 97.5 72.5007 97.9583 73.834 98.875C75.184 99.7917 75.859 101.225 75.859 103.175C75.859 104.192 75.6757 105.067 75.309 105.8C74.959 106.517 74.4423 107.108 73.759 107.575C73.0757 108.025 72.2423 108.358 71.259 108.575C70.2757 108.792 69.1507 108.9 67.884 108.9H66.309V115H63.159V97.925C63.8923 97.7583 64.7007 97.65 65.584 97.6C66.484 97.5333 67.309 97.5 68.059 97.5ZM68.284 100.225C67.484 100.225 66.8257 100.25 66.309 100.3V106.2H67.834C69.3507 106.2 70.5173 105.992 71.334 105.575C72.1507 105.142 72.559 104.333 72.559 103.15C72.559 102.583 72.4507 102.108 72.234 101.725C72.0173 101.342 71.7173 101.042 71.334 100.825C70.9507 100.608 70.4923 100.458 69.959 100.375C69.4423 100.275 68.884 100.225 68.284 100.225ZM86.0352 104.65C85.7852 104.567 85.4352 104.483 84.9852 104.4C84.5518 104.3 84.0435 104.25 83.4602 104.25C83.1268 104.25 82.7685 104.283 82.3852 104.35C82.0185 104.417 81.7602 104.475 81.6102 104.525V115H78.5852V102.55C79.1685 102.333 79.8935 102.133 80.7602 101.95C81.6435 101.75 82.6185 101.65 83.6852 101.65C83.8852 101.65 84.1185 101.667 84.3852 101.7C84.6518 101.717 84.9185 101.75 85.1852 101.8C85.4518 101.833 85.7102 101.883 85.9602 101.95C86.2102 102 86.4102 102.05 86.5602 102.1L86.0352 104.65ZM100.493 108.45C100.493 109.483 100.343 110.425 100.043 111.275C99.7432 112.125 99.3182 112.85 98.7682 113.45C98.2182 114.05 97.5515 114.517 96.7682 114.85C96.0015 115.183 95.1515 115.35 94.2182 115.35C93.2848 115.35 92.4348 115.183 91.6682 114.85C90.9015 114.517 90.2432 114.05 89.6932 113.45C89.1432 112.85 88.7098 112.125 88.3932 111.275C88.0932 110.425 87.9432 109.483 87.9432 108.45C87.9432 107.417 88.0932 106.483 88.3932 105.65C88.7098 104.8 89.1432 104.075 89.6932 103.475C90.2598 102.875 90.9265 102.417 91.6932 102.1C92.4598 101.767 93.3015 101.6 94.2182 101.6C95.1348 101.6 95.9765 101.767 96.7432 102.1C97.5265 102.417 98.1932 102.875 98.7432 103.475C99.2932 104.075 99.7182 104.8 100.018 105.65C100.335 106.483 100.493 107.417 100.493 108.45ZM97.3932 108.45C97.3932 107.15 97.1098 106.125 96.5432 105.375C95.9932 104.608 95.2182 104.225 94.2182 104.225C93.2182 104.225 92.4348 104.608 91.8682 105.375C91.3182 106.125 91.0432 107.15 91.0432 108.45C91.0432 109.767 91.3182 110.808 91.8682 111.575C92.4348 112.342 93.2182 112.725 94.2182 112.725C95.2182 112.725 95.9932 112.342 96.5432 111.575C97.1098 110.808 97.3932 109.767 97.3932 108.45ZM112.285 108.525C112.285 107.175 111.976 106.125 111.36 105.375C110.76 104.625 109.785 104.25 108.435 104.25C108.151 104.25 107.851 104.267 107.535 104.3C107.235 104.317 106.935 104.367 106.635 104.45V111.925C106.901 112.108 107.251 112.283 107.685 112.45C108.135 112.6 108.61 112.675 109.11 112.675C110.21 112.675 111.01 112.3 111.51 111.55C112.026 110.8 112.285 109.792 112.285 108.525ZM115.385 108.475C115.385 109.475 115.251 110.392 114.985 111.225C114.735 112.058 114.368 112.775 113.885 113.375C113.401 113.975 112.793 114.442 112.06 114.775C111.343 115.108 110.526 115.275 109.61 115.275C108.993 115.275 108.426 115.2 107.91 115.05C107.393 114.9 106.968 114.733 106.635 114.55V119.625H103.61V102.35C104.226 102.183 104.985 102.025 105.885 101.875C106.785 101.725 107.735 101.65 108.735 101.65C109.768 101.65 110.693 101.808 111.51 102.125C112.326 102.442 113.018 102.9 113.585 103.5C114.168 104.083 114.61 104.8 114.91 105.65C115.226 106.483 115.385 107.425 115.385 108.475Z"
        fill="#1B1D28"/>
</svg>
